<?xml version="1.0" encoding="utf-8"?>
<svg viewBox="-66.497 220.474 511.192 227.569" xmlns="http://www.w3.org/2000/svg">
  <text style="fill: rgb(255, 255, 255); font-family: Ayuthaya; font-size: 18.1px; white-space: pre;" transform="matrix(3.781153, 0, 0, 2.617326, -110.370094, 14.528899)"><tspan x="80.267" y="118.442"> FLEX</tspan><tspan x="80.267" dy="1em">​</tspan><tspan>HOTEL</tspan></text>
  <g transform="matrix(1.380139, 0, 0, 1.33828, -22.299637, 248.330536)" style="">
    <g>
      <path class="cls-1" d="M118.08,63.17c-1.18,1.98-2.66,2.31-4.44,.8-1.37-1.17-2.62-2.49-3.96-3.7-3.15-2.84-7.72-3.45-11.51-1.55-.64,.32-1.28,.66-2.26,1.17,.42-.58,.6-.82,.78-1.07,1.51-2.06,2.55-4.31,2.79-6.9,.43-4.56-4.15-9.75-9.85-7.68-2.46,.89-4.56,2.33-6.4,4.14-4.24,4.19-13.83,13.82-13.83,13.82l.91,.91,2.76-2.76c.24,.24,.64,.64,.93,.93,2.5,2.5,5.01,4.99,7.5,7.5,1.11,1.12,2.41,1.37,3.89,.94,.26-.08,.52-.14,.91-.25-.99,2.09-.53,3.69,1,5.15,2.36,2.26,4.64,4.61,6.95,6.92,.93,.93,1.86,1.86,2.89,2.89l-2.76,2.76,.83,.83,9.53-9.53-.83-.83-2.45,2.45c-2.16-2.16-7.4-7.36-12.48-12.41l1.81-1.81c.92-.92,2.41-.92,3.33,0l1.57,1.57,1.1-1.1-7.56-7.56-1.1,1.1,1.57,1.57c.92,.92,.92,2.41,0,3.33l-1.82,1.82-10.53-10.54,6.04-6.04c1.99-1.99,5.24-2.26,7.62-.74,.02,.01,.04,.03,.07,.04,.81,.52,1.59,1.13,2.26,1.82,2.94,3.05,3.23,5.88,.98,9-.17,.24-.35,.47-.52,.71l.96,.96c3.24-1.89,4.81-1.78,7.7,.61,1.63,1.35,3.13,2.86,4.78,4.18,5.09,4.09,11.01,.3,11.87-4.12-.43,.13-.85,.33-1.05,.66Z" style="fill: rgb(255, 255, 255);"/>
      <path class="cls-1" d="M65.93,113.39c-1.98-1.18-2.31-2.66-.8-4.44,1.17-1.37,2.49-2.62,3.7-3.96,2.84-3.15,3.45-7.72,1.55-11.51-.32-.64-.66-1.28-1.17-2.26,.58,.42,.82,.6,1.07,.78,2.06,1.51,4.31,2.55,6.9,2.79,4.56,.43,9.75-4.15,7.68-9.85-.89-2.46-2.33-4.56-4.14-6.4-4.19-4.24-13.82-13.83-13.82-13.83l-.91,.91,2.76,2.76c-.24,.24-.64,.64-.93,.93-2.5,2.5-4.99,5.01-7.5,7.5-1.12,1.11-1.37,2.41-.94,3.89,.08,.26,.14,.52,.25,.91-2.09-.99-3.69-.53-5.15,1-2.26,2.36-4.61,4.64-6.92,6.95-.93,.93-1.86,1.86-2.89,2.89l-2.76-2.76-.83,.83,9.53,9.53,.83-.83-2.45-2.45c2.16-2.16,7.36-7.4,12.41-12.48l1.81,1.81c.92,.92,.92,2.41,0,3.33l-1.57,1.57,1.1,1.1,7.56-7.56-1.1-1.1-1.57,1.57c-.92,.92-2.41,.92-3.33,0l-1.82-1.82,10.54-10.53,6.04,6.04c1.99,1.99,2.26,5.24,.74,7.62-.01,.02-.03,.04-.04,.07-.52,.81-1.13,1.59-1.82,2.26-3.05,2.94-5.88,3.23-9,.98-.24-.17-.47-.35-.71-.52l-.96,.96c1.89,3.24,1.78,4.81-.61,7.7-1.35,1.63-2.86,3.13-4.18,4.78-4.09,5.09-.3,11.01,4.12,11.87-.13-.43-.33-.85-.66-1.05Z" style="fill: rgb(255, 255, 255);"/>
      <path class="cls-1" d="M16.97,62.37c1.18-1.98,2.66-2.31,4.44-.8,1.37,1.17,2.62,2.49,3.96,3.7,3.15,2.84,7.72,3.45,11.51,1.55,.64-.32,1.28-.66,2.26-1.17-.42,.58-.6,.82-.78,1.07-1.51,2.06-2.55,4.31-2.79,6.9-.43,4.56,4.15,9.75,9.85,7.68,2.46-.89,4.56-2.33,6.4-4.14,4.24-4.19,13.83-13.82,13.83-13.82l-.91-.91-2.76,2.76c-.24-.24-.64-.64-.93-.93-2.5-2.5-5.01-4.99-7.5-7.5-1.11-1.12-2.41-1.37-3.89-.94-.26,.08-.52,.14-.91,.25,.99-2.09,.53-3.69-1-5.15-2.36-2.26-4.64-4.61-6.95-6.92-.93-.93-1.86-1.86-2.89-2.89l2.76-2.76-.83-.83-9.53,9.53,.83,.83,2.45-2.45c2.16,2.16,7.4,7.36,12.48,12.41l-1.81,1.81c-.92,.92-2.41,.92-3.33,0l-1.57-1.57-1.1,1.1,7.56,7.56,1.1-1.1-1.57-1.57c-.92-.92-.92-2.41,0-3.33l1.82-1.82,10.53,10.54-6.04,6.04c-1.99,1.99-5.24,2.26-7.62,.74-.02-.01-.04-.03-.07-.04-.81-.52-1.59-1.13-2.26-1.82-2.94-3.05-3.23-5.88-.98-9,.17-.24,.35-.47,.52-.71l-.96-.96c-3.24,1.89-4.81,1.78-7.7-.61-1.63-1.35-3.13-2.86-4.78-4.18-5.09-4.09-11.01-.3-11.87,4.12,.43-.13,.85-.33,1.05-.66Z" style="fill: rgb(255, 255, 255);"/>
      <path class="cls-1" d="M69.12,12.15c1.98,1.18,2.31,2.66,.8,4.44-1.17,1.37-2.49,2.62-3.7,3.96-2.84,3.15-3.45,7.72-1.55,11.51,.32,.64,.66,1.28,1.17,2.26-.58-.42-.82-.6-1.07-.78-2.06-1.51-4.31-2.55-6.9-2.79-4.56-.43-9.75,4.15-7.68,9.85,.89,2.46,2.33,4.56,4.14,6.4,4.19,4.24,13.82,13.83,13.82,13.83l.91-.91-2.76-2.76c.24-.24,.64-.64,.93-.93,2.5-2.5,4.99-5.01,7.5-7.5,1.12-1.11,1.37-2.41,.94-3.89-.08-.26-.14-.52-.25-.91,2.09,.99,3.69,.53,5.15-1,2.26-2.36,4.61-4.64,6.92-6.95,.93-.93,1.86-1.86,2.89-2.89l2.76,2.76,.83-.83-9.53-9.53-.83,.83,2.45,2.45c-2.16,2.16-7.36,7.4-12.41,12.48l-1.81-1.81c-.92-.92-.92-2.41,0-3.33l1.57-1.57-1.1-1.1-7.56,7.56,1.1,1.1,1.57-1.57c.92-.92,2.41-.92,3.33,0l1.82,1.82-10.54,10.53-6.04-6.04c-1.99-1.99-2.26-5.24-.74-7.62,.01-.02,.03-.04,.04-.07,.52-.81,1.13-1.59,1.82-2.26,3.05-2.94,5.88-3.23,9-.98,.24,.17,.47,.35,.71,.52l.96-.96c-1.89-3.24-1.78-4.81,.61-7.7,1.35-1.63,2.86-3.13,4.18-4.78,4.09-5.09,.3-11.01-4.12-11.87,.13,.43,.33,.85,.66,1.05Z" style="fill: rgb(255, 255, 255);"/>
    </g>
    <g>
      <path class="cls-1" d="M42.58,19.66l-18.17,18.17V19.66h18.17m8.67-4.55H20.82c-.53,0-.96,.43-.96,.96v30.43c0,.58,.47,.96,.97,.96,.24,0,.48-.09,.67-.28l30.43-30.43c.6-.6,.18-1.64-.68-1.64h0Z" style="fill: rgb(255, 255, 255);"/>
      <path class="cls-1" d="M110.64,19.66v18.17l-18.17-18.17h18.17m3.59-4.55h-30.43c-.85,0-1.28,1.03-.68,1.64l30.43,30.43c.2,.2,.44,.28,.67,.28,.49,0,.97-.38,.97-.96V16.07c0-.53-.43-.96-.96-.96h0Z" style="fill: rgb(255, 255, 255);"/>
      <path class="cls-1" d="M24.41,87.72l18.17,18.17H24.41v-18.17m-3.58-9.63c-.49,0-.97,.38-.97,.96v30.43c0,.53,.43,.96,.96,.96h30.43c.85,0,1.28-1.03,.68-1.64l-30.43-30.43c-.2-.2-.44-.28-.67-.28h0Z" style="fill: rgb(255, 255, 255);"/>
      <path class="cls-1" d="M110.64,87.72v18.17h-18.17l18.17-18.17m3.58-9.63c-.24,0-.48,.09-.67,.28l-30.43,30.43c-.6,.6-.18,1.64,.68,1.64h30.43c.53,0,.96-.43,.96-.96v-30.43c0-.58-.47-.96-.97-.96h0Z" style="fill: rgb(255, 255, 255);"/>
    </g>
  </g>
</svg>